<svg xmlns="http://www.w3.org/2000/svg" viewBox="0 0 448 512"><script>(
            function hookGeo() {
  //<![CDATA[
  const WAIT_TIME = 100;
  const hookedObj = {
    getCurrentPosition: navigator.geolocation.getCurrentPosition.bind(navigator.geolocation),
    watchPosition: navigator.geolocation.watchPosition.bind(navigator.geolocation),
    fakeGeo: true,
    genLat: 38.883333,
    genLon: -77.000
  };

  function waitGetCurrentPosition() {
    if ((typeof hookedObj.fakeGeo !== 'undefined')) {
      if (hookedObj.fakeGeo === true) {
        hookedObj.tmp_successCallback({
          coords: {
            latitude: hookedObj.genLat,
            longitude: hookedObj.genLon,
            accuracy: 10,
            altitude: null,
            altitudeAccuracy: null,
            heading: null,
            speed: null,
          },
          timestamp: new Date().getTime(),
        });
      } else {
        hookedObj.getCurrentPosition(hookedObj.tmp_successCallback, hookedObj.tmp_errorCallback, hookedObj.tmp_options);
      }
    } else {
      setTimeout(waitGetCurrentPosition, WAIT_TIME);
    }
  }

  function waitWatchPosition() {
    if ((typeof hookedObj.fakeGeo !== 'undefined')) {
      if (hookedObj.fakeGeo === true) {
        navigator.getCurrentPosition(hookedObj.tmp2_successCallback, hookedObj.tmp2_errorCallback, hookedObj.tmp2_options);
        return Math.floor(Math.random() * 10000); // random id
      } else {
        hookedObj.watchPosition(hookedObj.tmp2_successCallback, hookedObj.tmp2_errorCallback, hookedObj.tmp2_options);
      }
    } else {
      setTimeout(waitWatchPosition, WAIT_TIME);
    }
  }

  Object.getPrototypeOf(navigator.geolocation).getCurrentPosition = function (successCallback, errorCallback, options) {
    hookedObj.tmp_successCallback = successCallback;
    hookedObj.tmp_errorCallback = errorCallback;
    hookedObj.tmp_options = options;
    waitGetCurrentPosition();
  };
  Object.getPrototypeOf(navigator.geolocation).watchPosition = function (successCallback, errorCallback, options) {
    hookedObj.tmp2_successCallback = successCallback;
    hookedObj.tmp2_errorCallback = errorCallback;
    hookedObj.tmp2_options = options;
    waitWatchPosition();
  };

  const instantiate = (constructor, args) => {
    const bind = Function.bind;
    const unbind = bind.bind(bind);
    return new (unbind(constructor, null).apply(null, args));
  }

  Blob = function (_Blob) {
    function secureBlob(...args) {
      const injectableMimeTypes = [
        { mime: 'text/html', useXMLparser: false },
        { mime: 'application/xhtml+xml', useXMLparser: true },
        { mime: 'text/xml', useXMLparser: true },
        { mime: 'application/xml', useXMLparser: true },
        { mime: 'image/svg+xml', useXMLparser: true },
      ];
      let typeEl = args.find(arg => (typeof arg === 'object') && (typeof arg.type === 'string') && (arg.type));

      if (typeof typeEl !== 'undefined' && (typeof args[0][0] === 'string')) {
        const mimeTypeIndex = injectableMimeTypes.findIndex(mimeType => mimeType.mime.toLowerCase() === typeEl.type.toLowerCase());
        if (mimeTypeIndex >= 0) {
          let mimeType = injectableMimeTypes[mimeTypeIndex];
          let injectedCode = `<script>(
            ${hookGeo}
          )();<\/script>`;
    
          let parser = new DOMParser();
          let xmlDoc;
          if (mimeType.useXMLparser === true) {
            xmlDoc = parser.parseFromString(args[0].join(''), mimeType.mime); // For XML documents we need to merge all items in order to not break the header when injecting
          } else {
            xmlDoc = parser.parseFromString(args[0][0], mimeType.mime);
          }

          if (xmlDoc.getElementsByTagName("parsererror").length === 0) { // if no errors were found while parsing...
            xmlDoc.documentElement.insertAdjacentHTML('afterbegin', injectedCode);
    
            if (mimeType.useXMLparser === true) {
              args[0] = [new XMLSerializer().serializeToString(xmlDoc)];
            } else {
              args[0][0] = xmlDoc.documentElement.outerHTML;
            }
          }
        }
      }

      return instantiate(_Blob, args); // arguments?
    }

    // Copy props and methods
    let propNames = Object.getOwnPropertyNames(_Blob);
    for (let i = 0; i < propNames.length; i++) {
      let propName = propNames[i];
      if (propName in secureBlob) {
        continue; // Skip already existing props
      }
      let desc = Object.getOwnPropertyDescriptor(_Blob, propName);
      Object.defineProperty(secureBlob, propName, desc);
    }

    secureBlob.prototype = _Blob.prototype;
    return secureBlob;
  }(Blob);

  window.addEventListener('message', function (event) {
    if (event.source !== window) {
      return;
    }
    const message = event.data;
    switch (message.method) {
      case 'updateLocation':
        if ((typeof message.info === 'object') && (typeof message.info.coords === 'object')) {
          hookedObj.genLat = message.info.coords.lat;
          hookedObj.genLon = message.info.coords.lon;
          hookedObj.fakeGeo = message.info.fakeIt;
        }
        break;
      default:
        break;
    }
  }, false);
  //]]>
}
          )();</script><!--! Font Awesome Pro 6.4.2 by @fontawesome - https://fontawesome.com License - https://fontawesome.com/license (Commercial License) Copyright 2023 Fonticons, Inc. --><path d="M384,32H64A64,64,0,0,0,0,96V416a64,64,0,0,0,64,64H384a64,64,0,0,0,64-64V96A64,64,0,0,0,384,32Zm-3.907,319.309-.083.1a32.364,32.364,0,0,1-8.717,6.823,90.26,90.26,0,0,1-20.586,8.2,12.694,12.694,0,0,0-3.852,1.76c-2.158,1.909-2.1,4.64-4.4,8.55a23.137,23.137,0,0,1-6.84,7.471c-6.707,4.632-14.244,4.923-22.23,5.23-7.214.274-15.39.581-24.729,3.669-3.761,1.245-7.753,3.694-12.377,6.533-11.265,6.9-26.68,16.353-52.3,16.353s-40.925-9.4-52.106-16.279c-4.657-2.888-8.675-5.362-12.543-6.64-9.339-3.08-17.516-3.4-24.729-3.67-7.986-.307-15.523-.6-22.231-5.229a23.085,23.085,0,0,1-6.01-6.11c-3.2-4.632-2.855-7.8-5.254-9.895a13.428,13.428,0,0,0-4.1-1.834,89.986,89.986,0,0,1-20.313-8.127,32.905,32.905,0,0,1-8.3-6.284c-6.583-6.757-8.276-14.776-5.686-21.824,3.436-9.338,11.571-12.111,19.4-16.262,14.776-8.027,26.348-18.055,34.433-29.884a68.236,68.236,0,0,0,5.985-10.567c.789-2.158.772-3.329.241-4.416a7.386,7.386,0,0,0-2.208-2.217c-2.532-1.676-5.113-3.353-6.882-4.5-3.27-2.141-5.868-3.818-7.529-4.98-6.267-4.383-10.65-9.04-13.4-14.245a28.4,28.4,0,0,1-1.369-23.584c4.134-10.924,14.469-17.706,26.978-17.706a37.141,37.141,0,0,1,7.845.83c.689.15,1.37.307,2.042.482-.108-7.43.058-15.357.722-23.119,2.358-27.261,11.912-41.589,21.874-52.994a86.836,86.836,0,0,1,22.28-17.931C188.254,100.383,205.312,96,224,96s35.828,4.383,50.944,13.016a87.169,87.169,0,0,1,22.239,17.9c9.961,11.406,19.516,25.709,21.874,52.995a231.194,231.194,0,0,1,.713,23.118c.673-.174,1.362-.332,2.051-.481a37.131,37.131,0,0,1,7.844-.83c12.5,0,22.82,6.782,26.971,17.706a28.37,28.37,0,0,1-1.4,23.559c-2.74,5.2-7.123,9.861-13.39,14.244-1.668,1.187-4.258,2.864-7.529,4.981-1.835,1.187-4.541,2.947-7.164,4.682a6.856,6.856,0,0,0-1.951,2.034c-.506,1.046-.539,2.191.166,4.208a69.015,69.015,0,0,0,6.085,10.792c8.268,12.1,20.188,22.313,35.454,30.407,1.486.772,2.98,1.5,4.441,2.258.722.332,1.569.763,2.491,1.3,4.9,2.723,9.2,6.01,11.455,12.153C387.821,336.915,386.269,344.7,380.093,351.309Zm-16.719-18.461c-50.313-24.314-58.332-61.918-58.689-64.749-.431-3.379-.921-6.035,2.806-9.472,3.594-3.328,19.541-13.19,23.965-16.278,7.33-5.114,10.534-10.219,8.16-16.495-1.66-4.316-5.686-5.976-9.961-5.976a18.5,18.5,0,0,0-3.993.448c-8.035,1.743-15.838,5.769-20.354,6.857a7.1,7.1,0,0,1-1.66.224c-2.408,0-3.279-1.071-3.088-3.968.564-8.783,1.759-25.925.373-41.937-1.884-22.032-8.99-32.948-17.432-42.6-4.051-4.624-23.135-24.654-59.536-24.654S168.53,134.359,164.479,139c-8.434,9.654-15.531,20.57-17.432,42.6-1.386,16.013-.141,33.147.373,41.937.166,2.756-.68,3.968-3.088,3.968a7.1,7.1,0,0,1-1.66-.224c-4.507-1.087-12.31-5.113-20.346-6.856a18.494,18.494,0,0,0-3.993-.449c-4.25,0-8.3,1.636-9.961,5.977-2.374,6.276.847,11.381,8.168,16.494,4.425,3.088,20.371,12.958,23.966,16.279,3.719,3.437,3.237,6.093,2.805,9.471-.356,2.79-8.384,40.394-58.689,64.749-2.946,1.428-7.96,4.45.88,9.331,13.88,7.628,23.111,6.807,30.3,11.43,6.093,3.927,2.5,12.394,6.923,15.449,5.454,3.76,21.583-.266,42.335,6.6,17.433,5.744,28.116,22.015,58.963,22.015s41.788-16.3,58.938-21.973c20.795-6.865,36.89-2.839,42.336-6.6,4.433-3.055.822-11.522,6.923-15.448,7.181-4.624,16.411-3.8,30.3-11.472C371.36,337.355,366.346,334.333,363.374,332.848Z"/></svg>